<svg width="291" height="212" viewBox="0 0 291 212" fill="none" xmlns="http://www.w3.org/2000/svg">
<g clip-path="url(#clip0)">
<path opacity="0.1" d="M20.5652 171.167C28.5674 171.167 35.0545 168.856 35.0545 166.006C35.0545 163.155 28.5674 160.844 20.5652 160.844C12.563 160.844 6.07587 163.155 6.07587 166.006C6.07587 168.856 12.563 171.167 20.5652 171.167Z" fill="black"/>
<path opacity="0.1" d="M254.642 192.508C262.644 192.508 269.131 190.197 269.131 187.346C269.131 184.495 262.644 182.184 254.642 182.184C246.639 182.184 240.152 184.495 240.152 187.346C240.152 190.197 246.639 192.508 254.642 192.508Z" fill="black"/>
<path opacity="0.1" d="M171.582 5.94569C149.533 14.4787 125.632 14.8755 103.431 6.84254C71.9668 -4.53914 30.8751 -7.45231 15.6485 44.7041C-10.3389 133.812 42.8272 165.618 42.8272 165.618C42.8272 165.618 79.9456 173.955 100.498 189.017C129.692 210.413 165.445 217.565 199.125 207.532C220.662 201.115 239.122 190.588 244.399 173.364C259.159 125.192 249.789 96.2378 276.501 83.5366C303.213 70.8355 288.35 23.7828 269.353 22.715C250.356 21.6471 205.6 32.561 191.755 10.8526C186.819 3.14543 179.268 2.968 171.582 5.94569Z" fill="black"/>
<path d="M254.055 188.078C254.055 188.078 257.919 174.903 253.328 165.205C251.372 161.15 250.783 156.569 251.647 152.149C252.074 150.054 252.691 148.002 253.492 146.02" stroke="#535461" stroke-width="2" stroke-miterlimit="10"/>
<path d="M250.633 139.893C250.633 141.507 253.55 146.191 253.55 146.191C253.55 146.191 256.467 141.51 256.467 139.893C256.467 139.118 256.16 138.374 255.612 137.826C255.065 137.277 254.322 136.969 253.548 136.969C252.774 136.969 252.032 137.277 251.484 137.826C250.937 138.374 250.63 139.118 250.63 139.893H250.633Z" fill="#FA575A"/>
<path d="M245.81 148.839C246.685 150.194 251.676 152.537 251.676 152.537C251.676 152.537 251.586 147.017 250.71 145.662C250.502 145.34 250.232 145.062 249.917 144.844C249.601 144.626 249.246 144.473 248.872 144.392C248.497 144.312 248.11 144.306 247.733 144.376C247.357 144.445 246.997 144.589 246.676 144.797C246.354 145.006 246.077 145.276 245.859 145.592C245.642 145.908 245.489 146.264 245.409 146.639C245.329 147.015 245.323 147.402 245.392 147.78C245.462 148.157 245.604 148.517 245.813 148.839H245.81Z" fill="#FA575A"/>
<path d="M246.019 164.122C247.458 164.847 252.945 164.347 252.945 164.347C252.945 164.347 250.085 159.628 248.646 158.902C247.955 158.553 247.154 158.493 246.419 158.735C245.685 158.978 245.076 159.503 244.728 160.195C244.379 160.888 244.319 161.69 244.562 162.426C244.804 163.163 245.328 163.772 246.019 164.122Z" fill="#FA575A"/>
<path d="M248.778 175.651C250.066 176.619 255.566 177.045 255.566 177.045C255.566 177.045 253.543 171.909 252.249 170.951C251.627 170.49 250.848 170.295 250.082 170.41C249.317 170.524 248.628 170.939 248.168 171.562C247.708 172.186 247.513 172.967 247.628 173.734C247.742 174.5 248.156 175.19 248.778 175.651Z" fill="#FA575A"/>
<path d="M257.8 152.849C256.644 153.975 251.257 155.14 251.257 155.14C251.257 155.14 252.578 149.781 253.734 148.656C254.289 148.115 255.035 147.818 255.809 147.829C256.583 147.84 257.32 148.159 257.86 148.715C258.399 149.271 258.696 150.019 258.685 150.795C258.673 151.57 258.355 152.309 257.8 152.849Z" fill="#FA575A"/>
<path d="M260.856 166.37C259.417 167.096 253.93 166.596 253.93 166.596C253.93 166.596 256.789 161.876 258.228 161.166C258.919 160.817 259.72 160.757 260.455 161C261.19 161.243 261.799 161.768 262.147 162.46C262.495 163.152 262.555 163.955 262.313 164.691C262.071 165.427 261.547 166.037 260.856 166.386V166.37Z" fill="#FA575A"/>
<path d="M262.025 179.923C260.737 180.891 255.237 181.317 255.237 181.317C255.237 181.317 257.259 176.181 258.554 175.223C259.176 174.761 259.955 174.567 260.721 174.681C261.486 174.796 262.174 175.211 262.635 175.834C263.095 176.457 263.289 177.238 263.175 178.005C263.061 178.772 262.647 179.462 262.025 179.923Z" fill="#FA575A"/>
<path d="M20.5716 166.044C20.5716 166.044 28.8434 137.938 19.026 117.227C14.9046 108.539 13.5523 98.7897 15.4424 89.363C16.3535 84.8921 17.6717 80.5143 19.3802 76.2844" stroke="#535461" stroke-width="2" stroke-miterlimit="10"/>
<path d="M13.2722 63.2024C13.2722 66.6479 19.4994 76.6424 19.4994 76.6424C19.4994 76.6424 25.7233 66.6414 25.7233 63.2024C25.7233 61.5477 25.0673 59.9607 23.8994 58.7906C22.7316 57.6205 21.1477 56.9631 19.4962 56.9631C17.8446 56.9631 16.2607 57.6205 15.0929 58.7906C13.9251 59.9607 13.269 61.5477 13.269 63.2024H13.2722Z" fill="#FA575A"/>
<path d="M2.97836 82.2914C4.84909 85.1949 15.4971 90.1824 15.4971 90.1824C15.4971 90.1824 15.3039 78.4007 13.4332 75.5101C12.518 74.1635 11.1135 73.229 9.51978 72.9062C7.92604 72.5834 6.2695 72.898 4.90419 73.7827C3.53888 74.6675 2.57309 76.0522 2.21323 77.6409C1.85336 79.2296 2.12797 80.8964 2.97836 82.2849V82.2914Z" fill="#FA575A"/>
<path d="M3.42594 114.914C6.49767 116.466 18.2082 115.394 18.2082 115.394C18.2082 115.394 12.0905 105.323 9.03491 103.781C8.30467 103.412 7.50904 103.19 6.69345 103.129C5.87786 103.068 5.05828 103.169 4.2815 103.425C3.50473 103.682 2.78596 104.089 2.16626 104.624C1.54655 105.159 1.03804 105.81 0.669749 106.542C0.301458 107.274 0.0806063 108.071 0.0198004 108.888C-0.0410055 109.705 0.0594266 110.526 0.315362 111.305C0.832248 112.877 1.95115 114.178 3.42594 114.923V114.914Z" fill="#FA575A"/>
<path d="M9.30211 139.519C12.068 141.568 23.7914 142.494 23.7914 142.494C23.7914 142.494 19.4768 131.525 16.7078 129.486C15.3799 128.502 13.7162 128.087 12.0828 128.332C10.4495 128.577 8.98013 129.462 7.99808 130.793C7.01603 132.123 6.60171 133.79 6.84626 135.427C7.09081 137.063 7.97421 138.535 9.30211 139.519Z" fill="#FA575A"/>
<path d="M28.5729 90.8373C26.1065 93.2375 14.6116 95.7249 14.6116 95.7249C14.6116 95.7249 17.4258 84.2851 19.8922 81.8849C21.077 80.7298 22.6713 80.0936 24.3243 80.1163C25.9774 80.139 27.5537 80.8187 28.7065 82.0059C29.8593 83.193 30.4943 84.7904 30.4716 86.4466C30.449 88.1029 29.7706 89.6822 28.5858 90.8373H28.5729Z" fill="#FA575A"/>
<path d="M35.0931 119.714C32.0214 121.266 20.3108 120.195 20.3108 120.195C20.3108 120.195 26.4285 110.123 29.4841 108.581C30.2144 108.212 31.01 107.991 31.8256 107.93C32.6412 107.869 33.4608 107.969 34.2375 108.226C35.0143 108.482 35.7331 108.889 36.3528 109.424C36.9725 109.959 37.481 110.611 37.8493 111.342C38.2176 112.074 38.4384 112.871 38.4992 113.688C38.56 114.506 38.4596 115.327 38.2037 116.105C37.9477 116.883 37.5413 117.603 37.0076 118.224C36.4739 118.845 35.8233 119.355 35.0931 119.724V119.714Z" fill="#FA575A"/>
<path d="M37.5885 148.639C34.8226 150.688 23.0992 151.614 23.0992 151.614C23.0992 151.614 27.4138 140.645 30.1828 138.606C31.5107 137.622 33.1744 137.207 34.8078 137.452C36.4411 137.697 37.9105 138.582 38.8925 139.913C39.8746 141.243 40.2889 142.91 40.0443 144.547C39.7998 146.183 38.9164 147.655 37.5885 148.639Z" fill="#FA575A"/>
<path d="M122.08 96.7151L104.136 94.3859C103.409 94.2923 102.848 94.0149 102.868 93.7729C102.9 93.531 103.512 93.4181 104.255 93.5245L122.161 96.1215C122.654 96.1925 123.027 96.3796 123.005 96.5442C122.982 96.699 122.57 96.7797 122.08 96.7151Z" fill="#FA575A"/>
<path d="M122.193 97.022L104.194 95.1573C103.463 95.0831 102.842 95.2186 102.819 95.4605C102.797 95.7025 103.38 95.9573 104.107 96.0219L122.138 97.6349C122.634 97.6801 123.04 97.5833 123.056 97.4188C123.069 97.2446 122.686 97.0736 122.193 97.022Z" fill="#FA575A"/>
<path d="M149.195 110.587L167.136 108.258C167.863 108.165 168.424 107.887 168.404 107.645C168.372 107.403 167.76 107.29 167.017 107.397L149.111 109.994C148.618 110.065 148.245 110.252 148.267 110.416C148.29 110.571 148.702 110.652 149.195 110.587Z" fill="#FA575A"/>
<path d="M149.079 110.894L167.078 109.029C167.809 108.955 168.43 109.091 168.453 109.333C168.475 109.575 167.892 109.829 167.165 109.894L149.134 111.507C148.638 111.552 148.232 111.455 148.216 111.291C148.203 111.117 148.586 110.946 149.079 110.894Z" fill="#FA575A"/>
<path d="M89.8434 129.896H85.4676V192.76H89.8434V129.896Z" fill="#40414D"/>
<path d="M185.415 129.896H181.039V192.76H185.415V129.896Z" fill="#40414D"/>
<path d="M83.7965 124.779H184.9C186.778 124.779 188.58 125.527 189.909 126.858C191.237 128.189 191.983 129.994 191.983 131.876V132.819H76.7128V131.876C76.7128 129.994 77.4591 128.189 78.7876 126.858C80.116 125.527 81.9178 124.779 83.7965 124.779Z" fill="#DFE6F5"/>
<path opacity="0.1" d="M83.4745 124.779H184.578C186.456 124.779 188.258 125.527 189.587 126.858C190.915 128.189 191.661 129.994 191.661 131.876V132.819H76.3909V131.876C76.3909 129.994 77.1372 128.189 78.4656 126.858C79.7941 125.527 81.5958 124.779 83.4745 124.779Z" fill="black"/>
<path d="M83.7965 123.314H184.9C186.778 123.314 188.58 124.062 189.909 125.393C191.237 126.724 191.983 128.53 191.983 130.412V131.354H76.7128V130.412C76.7128 128.53 77.4591 126.724 78.7876 125.393C80.116 124.062 81.9178 123.314 83.7965 123.314Z" fill="#DFE6F5"/>
<path d="M134.348 118.198C139.183 118.198 143.103 114.271 143.103 109.426C143.103 104.582 139.183 100.654 134.348 100.654C129.513 100.654 125.593 104.582 125.593 109.426C125.593 114.271 129.513 118.198 134.348 118.198Z" fill="#FFD77C" stroke="#FFAB50" stroke-miterlimit="10"/>
<path d="M134.348 116.378C138.18 116.378 141.287 113.266 141.287 109.426C141.287 105.587 138.18 102.474 134.348 102.474C130.516 102.474 127.409 105.587 127.409 109.426C127.409 113.266 130.516 116.378 134.348 116.378Z" fill="#FFD77C" stroke="#FFAB50" stroke-miterlimit="10"/>
<path d="M134.348 114.723C137.268 114.723 139.635 112.352 139.635 109.426C139.635 106.501 137.268 104.129 134.348 104.129C131.428 104.129 129.061 106.501 129.061 109.426C129.061 112.352 131.428 114.723 134.348 114.723Z" fill="#FFD77C" stroke="#FFAB50" stroke-miterlimit="10"/>
<path d="M134.348 112.404C135.989 112.404 137.32 111.071 137.32 109.426C137.32 107.782 135.989 106.448 134.348 106.448C132.707 106.448 131.376 107.782 131.376 109.426C131.376 111.071 132.707 112.404 134.348 112.404Z" fill="#FFD77C" stroke="#FFAB50" stroke-miterlimit="10"/>
<path d="M129.241 122.95C134.076 122.95 137.996 119.023 137.996 114.178C137.996 109.334 134.076 105.406 129.241 105.406C124.406 105.406 120.487 109.334 120.487 114.178C120.487 119.023 124.406 122.95 129.241 122.95Z" fill="#FFD77C" stroke="#FFAB50" stroke-miterlimit="10"/>
<path d="M129.241 121.13C133.074 121.13 136.18 118.018 136.18 114.178C136.18 110.338 133.074 107.226 129.241 107.226C125.409 107.226 122.303 110.338 122.303 114.178C122.303 118.018 125.409 121.13 129.241 121.13Z" fill="#FFD77C" stroke="#FFAB50" stroke-miterlimit="10"/>
<path d="M129.241 119.475C132.161 119.475 134.528 117.104 134.528 114.178C134.528 111.253 132.161 108.881 129.241 108.881C126.321 108.881 123.954 111.253 123.954 114.178C123.954 117.104 126.321 119.475 129.241 119.475Z" fill="#FFD77C" stroke="#FFAB50" stroke-miterlimit="10"/>
<path d="M129.241 117.156C130.883 117.156 132.213 115.823 132.213 114.178C132.213 112.534 130.883 111.2 129.241 111.2C127.6 111.2 126.27 112.534 126.27 114.178C126.27 115.823 127.6 117.156 129.241 117.156Z" fill="#FFD77C" stroke="#FFAB50" stroke-miterlimit="10"/>
<path d="M139.455 122.95C144.29 122.95 148.209 119.023 148.209 114.178C148.209 109.334 144.29 105.406 139.455 105.406C134.62 105.406 130.7 109.334 130.7 114.178C130.7 119.023 134.62 122.95 139.455 122.95Z" fill="#FFD77C" stroke="#FFAB50" stroke-miterlimit="10"/>
<path d="M139.455 121.13C143.287 121.13 146.394 118.018 146.394 114.178C146.394 110.338 143.287 107.226 139.455 107.226C135.623 107.226 132.516 110.338 132.516 114.178C132.516 118.018 135.623 121.13 139.455 121.13Z" fill="#FFD77C" stroke="#FFAB50" stroke-miterlimit="10"/>
<path d="M139.455 119.475C142.375 119.475 144.742 117.104 144.742 114.178C144.742 111.253 142.375 108.881 139.455 108.881C136.535 108.881 134.168 111.253 134.168 114.178C134.168 117.104 136.535 119.475 139.455 119.475Z" fill="#FFD77C" stroke="#FFAB50" stroke-miterlimit="10"/>
<path d="M139.455 117.156C141.096 117.156 142.427 115.823 142.427 114.178C142.427 112.534 141.096 111.2 139.455 111.2C137.813 111.2 136.483 112.534 136.483 114.178C136.483 115.823 137.813 117.156 139.455 117.156Z" fill="#FFD77C" stroke="#FFAB50" stroke-miterlimit="10"/>
<path d="M116.108 111.623H152.585V113.339C152.585 115.034 152.252 116.712 151.605 118.278C150.958 119.843 150.009 121.266 148.813 122.464C147.617 123.662 146.197 124.613 144.635 125.261C143.072 125.91 141.397 126.244 139.706 126.244H128.987C127.296 126.244 125.621 125.91 124.058 125.261C122.496 124.613 121.076 123.662 119.88 122.464C118.684 121.266 117.735 119.843 117.088 118.278C116.441 116.712 116.108 115.034 116.108 113.339V111.623Z" fill="#FA575A"/>
<path opacity="0.1" d="M149.295 111.62C149.2 115.432 147.622 119.056 144.897 121.719C142.173 124.382 138.518 125.872 134.712 125.873H127.47C128.527 126.115 129.607 126.238 130.69 126.241H137.986C139.903 126.241 141.802 125.864 143.573 125.129C145.344 124.395 146.953 123.318 148.309 121.961C149.665 120.603 150.74 118.991 151.474 117.216C152.208 115.442 152.585 113.54 152.585 111.62H149.295Z" fill="black"/>
<path d="M183.229 182.158V177.774H88.3847V182.158H183.229Z" fill="#40414D"/>
<path d="M52.8248 162.463H48.9964V197.363H52.8248V162.463Z" fill="#40414D"/>
<path d="M83.0624 162.463H79.2339V197.363H83.0624V162.463Z" fill="#40414D"/>
<path d="M86.1276 156.711C86.1276 159.04 78.2455 160.931 68.5215 160.931C58.7976 160.931 51.2986 159.044 51.2986 156.711C51.2986 154.379 58.7976 152.491 68.5215 152.491C78.2455 152.491 86.1276 154.392 86.1276 156.711Z" fill="#F6C6CD"/>
<path d="M45.9343 156.708H86.1244V160.224C86.1244 161.123 85.7682 161.984 85.1342 162.619C84.5002 163.255 83.6403 163.612 82.7436 163.612H51.73C50.1929 163.612 48.7188 163 47.6319 161.911C46.5449 160.822 45.9343 159.345 45.9343 157.805V156.708Z" fill="#40414D"/>
<path d="M39.1093 116.356L39.9385 116.168C40.5216 116.036 41.1331 116.142 41.6384 116.462C42.1438 116.782 42.5017 117.29 42.6333 117.874L52.6709 162.428L51.4145 162.712C50.36 162.951 49.254 162.76 48.34 162.181C47.426 161.603 46.7788 160.684 46.5407 159.628L37.4007 119.057C37.3354 118.768 37.3278 118.468 37.3784 118.175C37.429 117.882 37.5367 117.602 37.6954 117.351C37.8542 117.1 38.0608 116.883 38.3034 116.712C38.546 116.542 38.8199 116.42 39.1093 116.356Z" fill="#40414D"/>
<path d="M216.512 197.983H220.34V163.083H216.512V197.983Z" fill="#40414D"/>
<path d="M186.274 197.983H190.103V163.083H186.274V197.983Z" fill="#40414D"/>
<path d="M183.216 157.33C183.216 159.66 191.098 161.55 200.822 161.55C210.546 161.55 218.045 159.663 218.045 157.33C218.045 154.998 210.543 153.101 200.822 153.101C191.101 153.101 183.216 155.001 183.216 157.33Z" fill="#F6C6CD"/>
<path d="M217.607 164.234H186.593C185.697 164.234 184.837 163.877 184.203 163.242C183.569 162.607 183.212 161.745 183.212 160.847V157.331H223.403V158.427C223.403 159.968 222.792 161.445 221.705 162.534C220.618 163.623 219.144 164.234 217.607 164.234Z" fill="#40414D"/>
<path d="M217.928 163.331L216.672 163.047L226.711 118.487C226.842 117.903 227.2 117.395 227.705 117.075C228.211 116.755 228.822 116.649 229.405 116.781L230.235 116.969C230.818 117.101 231.325 117.459 231.644 117.966C231.963 118.472 232.069 119.085 231.937 119.669L222.796 160.245C222.558 161.301 221.912 162.219 220.999 162.797C220.086 163.376 218.982 163.568 217.928 163.331Z" fill="#40414D"/>
<path d="M219.291 143.745L220.421 143.387C220.421 143.387 218.489 130.457 218.508 118.869C218.508 118.546 218.508 118.201 218.508 117.869C218.531 117.146 218.557 116.43 218.592 115.73C218.637 114.833 218.647 113.978 218.64 113.149C218.747 101.99 214.358 97.2766 214.358 97.2766C214.358 97.2766 209.206 89.9146 206.118 88.4822C205.851 87.6435 205.545 86.5659 205.275 85.3142C205.375 85.2465 205.471 85.1787 205.565 85.1077C206.84 84.1599 208.06 83.1399 209.219 82.0526C210.803 80.5654 212.323 78.7523 212.239 76.707C212.248 76.5078 212.242 76.3083 212.22 76.1102C211.927 73.6422 209.367 71.784 208.334 69.445C207.464 67.4803 207.725 65.293 206.965 63.2993C206.205 61.3056 203.552 59.4506 201.549 60.4991C200.812 60.8862 200.368 61.5701 199.753 62.0895C198.227 63.38 195.767 63.4993 193.68 62.9122C191.594 62.325 190.975 59.9313 188.058 59.9248C188.317 60.0118 188.565 60.1299 188.796 60.2764C188.552 60.2353 188.305 60.2137 188.058 60.2119C188.652 60.4 189.178 60.7564 189.573 61.2379C189.969 61.7194 190.216 62.3055 190.286 62.9251C190.282 63.0029 190.273 63.0804 190.261 63.1574C189.095 63.7865 187.562 63.4284 186.165 63.4058C184.768 63.3832 183.177 64.0897 183.315 65.235C183.292 65.3651 183.292 65.4984 183.315 65.6285C183.499 66.4964 184.658 67.1513 184.8 67.9546C184.8 67.9772 184.8 67.9965 184.8 68.0191C182.214 69.3138 179.416 70.1313 176.541 70.4322C176.448 70.4322 176.489 70.5451 176.625 70.7097H176.541C176.016 70.7645 179.687 73.6712 180.105 73.8616C181.638 74.5584 183.47 75.0713 185.093 75.6069L185.234 75.652C184.688 76.9247 184.406 78.2959 184.407 79.6814C184.407 84.6496 187.971 88.8242 192.798 90.005C193.699 91.0599 194.646 92.2181 195.509 93.3698H195.448C195.448 93.3698 189.9 100.764 190.077 111.807C190.061 113.191 190.135 114.575 190.296 115.949C186.728 115.746 179.062 114.804 173.231 110.526C165.365 104.761 156.591 106.49 158.42 109.949C160.248 113.407 169.615 116.288 171.125 116.578C171.267 116.604 171.595 116.682 172.065 116.798C170.204 117.149 168.929 117.766 169.006 118.595C169.158 120.179 177.175 125.224 182.015 125.511C185.212 125.702 189.06 126.689 192.096 127.557C192.389 134.186 190.789 136.174 190.789 136.174C190.789 136.174 191.265 136.467 192.054 136.883L191.716 137.851C189.752 138.987 187.331 140.171 185.128 140.648C182.322 141.226 179.594 142.136 177.001 143.358L166.109 148.633C165.136 149.085 164.294 149.778 163.663 150.647C163.032 151.516 162.633 152.531 162.502 153.598C162.264 155.834 162.937 158.627 166.582 160.844C166.807 162.66 167.915 164.779 170.822 166.722C176.457 170.477 191.265 181.726 193.281 183.262C193.32 186.007 192.959 191.514 189.578 192.372C185.341 193.45 188.751 197.534 192.176 197.373C192.989 197.681 193.874 197.746 194.723 197.56C198.355 196.695 211.666 192.076 212.574 185.165C212.612 184.866 212.629 184.564 212.626 184.262C212.678 183.084 212.385 181.916 211.782 180.904C211.924 181.216 212.039 181.54 212.127 181.871C211.025 179.355 208.343 177.774 206.257 176.884C206.257 176.861 206.257 176.835 206.257 176.813C205.935 176.687 205.613 176.584 205.349 176.49C205.354 176.303 205.34 176.116 205.307 175.932L184.433 161.521C184.433 161.521 193.509 154.027 202.889 155.182C212.268 156.337 213.762 154.63 213.762 154.63C213.762 154.63 218.573 150.046 219.056 144.768L219.358 144.687C219.358 144.687 219.336 144.355 219.291 143.745Z" fill="url(#paint0_linear)"/>
<path d="M193.799 181.281C193.799 181.281 194.653 190.691 190.383 191.834C186.114 192.976 190.1 197.537 193.513 196.673C196.926 195.808 209.454 191.253 210.307 184.414C211.161 177.574 201.768 175.287 201.768 175.287L193.799 181.281Z" fill="#B8616E"/>
<path opacity="0.05" d="M193.799 181.281C193.799 181.281 194.653 190.691 190.383 191.834C186.114 192.976 190.1 197.537 193.513 196.673C196.926 195.808 209.454 191.253 210.307 184.414C211.161 177.574 201.768 175.287 201.768 175.287L193.799 181.281Z" fill="black"/>
<path d="M195.515 181.565C195.515 181.565 196.369 190.975 192.099 192.117C187.83 193.26 191.816 197.821 195.229 196.957C198.642 196.092 211.17 191.537 212.024 184.697C212.877 177.858 203.485 175.571 203.485 175.571L195.515 181.565Z" fill="#B8616E"/>
<path opacity="0.1" d="M204.338 175.861L196.375 181.852C196.375 181.852 196.411 182.258 196.433 182.907C199.441 182.081 205.993 179.887 206.093 176.455C205.52 176.222 204.934 176.024 204.338 175.861Z" fill="black"/>
<path d="M199.357 93.8635H195.94V96.4315H199.357V93.8635Z" fill="#F8BDC5"/>
<path d="M196.085 135.357C196.085 135.357 190.66 139.629 186.204 140.642C183.554 141.216 180.986 142.117 178.557 143.323L168.308 148.542C167.377 149.012 166.579 149.707 165.986 150.566C165.393 151.424 165.024 152.418 164.914 153.456C164.621 156.359 165.787 160.179 172.741 162.45L194.659 180.704L201.492 175L178.151 157.037L196.085 145.913V135.357Z" fill="#758AC8"/>
<path opacity="0.1" d="M196.085 135.357C196.085 135.357 190.66 139.629 186.204 140.642C183.554 141.216 180.986 142.117 178.557 143.323L168.308 148.542C167.377 149.012 166.579 149.707 165.986 150.566C165.393 151.424 165.024 152.418 164.914 153.456C164.621 156.359 165.787 160.179 172.741 162.45L194.659 180.704L201.492 175L178.151 157.037L196.085 145.913V135.357Z" fill="black"/>
<path d="M192.952 116.253C192.952 116.253 182.42 116.536 175.018 110.833C167.615 105.129 159.363 106.839 161.07 110.262C162.776 113.685 171.602 116.536 173.025 116.82C174.448 117.104 194.942 122.811 194.942 122.811L192.952 116.253Z" fill="#F8BDC5"/>
<path opacity="0.05" d="M192.952 116.253C192.952 116.253 182.42 116.536 175.018 110.833C167.615 105.129 159.363 106.839 161.07 110.262C162.776 113.685 171.602 116.536 173.025 116.82C174.448 117.104 194.942 122.811 194.942 122.811L192.952 116.253Z" fill="black"/>
<path d="M194.092 132.796L190.676 143.065C190.676 143.065 171.463 154.901 169.895 156.469C168.678 157.689 167.049 162.46 172.741 166.451C178.434 170.442 194.089 182.994 194.089 182.994C194.089 182.994 206.044 180.413 205.191 175.574L185.55 161.315C185.55 161.315 194.089 153.895 202.915 155.04C211.74 156.185 213.163 154.469 213.163 154.469C213.163 154.469 219.996 147.617 217.716 141.068C215.437 134.519 194.092 132.796 194.092 132.796Z" fill="#758AC8"/>
<path d="M189.823 86.3208C189.823 86.3208 199.502 96.8734 198.932 100.009C198.362 103.145 206.617 90.8825 206.617 90.8825C206.617 90.8825 204.042 84.6077 204.624 77.762L189.823 86.3208Z" fill="#F8BDC5"/>
<path opacity="0.1" d="M198.268 95.9989C198.929 95.3004 199.624 94.6361 200.352 94.0084C201.808 92.8117 203.144 91.4751 204.341 90.0177C206.334 87.4368 213.733 98.5734 213.733 98.5734C213.733 98.5734 218.286 103.706 217.72 115.972C217.153 128.237 218.431 144.636 218.431 144.636L216.709 145.116C215.258 145.601 213.714 145.742 212.199 145.526C210.685 145.311 209.241 144.745 207.983 143.874C205.71 142.3 202.831 140.648 200.642 140.5C196.372 140.216 192.527 137.79 192.527 137.79C192.527 137.79 194.379 133.37 191.533 119.107C188.686 104.845 195.941 94.7085 195.941 94.7085C195.941 94.7085 196.514 97.812 198.268 95.9989Z" fill="black"/>
<path d="M219.426 143.349L217.72 143.92L216.705 144.258C215.254 144.744 213.711 144.884 212.196 144.669C210.682 144.453 209.238 143.887 207.979 143.016C205.709 141.445 202.828 139.79 200.638 139.642C196.375 139.355 191.545 136.219 191.545 136.219C191.545 136.219 194.392 132.512 191.545 118.25C188.699 103.987 195.957 93.8635 195.957 93.8635C195.957 93.8635 196.53 96.9509 198.285 95.1346C198.943 94.4369 199.638 93.7736 200.365 93.1473C201.821 91.9506 203.157 90.614 204.354 89.1566C206.347 86.5758 213.746 97.7123 213.746 97.7123C213.746 97.7123 218.299 102.845 217.732 115.111C217.671 116.401 217.645 117.73 217.642 119.076C217.6 130.554 219.426 143.349 219.426 143.349Z" fill="#5E52AD"/>
<path opacity="0.1" d="M203.201 115.398L203.485 121.672C203.485 121.672 188.396 122.527 185.267 119.392C182.137 116.256 193.799 128.615 196.375 129.373C198.793 130.086 205.037 130.715 208.311 130.78C209.247 130.81 210.171 130.567 210.971 130.081C211.771 129.595 212.413 128.886 212.819 128.041C213.201 127.209 213.324 126.282 213.173 125.379C212.603 121.672 213.173 113.685 213.173 113.685L203.201 115.398Z" fill="black"/>
<path d="M203.201 114.827L203.485 121.101C203.485 121.101 188.396 121.956 185.267 118.82C182.137 115.685 170.813 116.378 171.035 118.82C171.177 120.388 178.721 125.379 183.27 125.666C187.82 125.953 193.799 128.044 196.375 128.802C198.793 129.515 205.037 130.144 208.311 130.209C209.247 130.239 210.171 129.996 210.971 129.51C211.771 129.024 212.413 128.315 212.819 127.47C213.201 126.638 213.324 125.711 213.173 124.808C212.603 121.101 213.173 113.114 213.173 113.114L203.201 114.827Z" fill="#F8BDC5"/>
<path opacity="0.1" d="M206.618 96.5732C206.618 96.5732 200.072 97.4281 200.925 107.126C201.778 116.823 202.918 117.678 202.918 117.678C202.918 117.678 212.597 116.823 213.733 116.536C214.87 116.249 214.303 105.7 214.303 105.7C214.303 105.7 214.017 96.2893 206.618 96.5732Z" fill="black"/>
<path d="M206.618 96.2893C206.618 96.2893 200.072 97.1442 200.925 106.842C201.778 116.54 202.918 117.394 202.918 117.394C202.918 117.394 212.597 116.54 213.733 116.252C214.87 115.965 214.303 105.416 214.303 105.416C214.303 105.416 214.017 95.9989 206.618 96.2893Z" fill="#5E52AD"/>
<path opacity="0.1" d="M204.196 83.8818C203.749 81.6236 204.666 80.9267 204.908 78.0361L190.096 86.5918C190.096 86.5918 191.793 88.4435 193.722 90.8212C194.584 91.0396 195.47 91.148 196.359 91.1438C200.239 91.1599 202.361 86.9853 204.196 83.8818Z" fill="black"/>
<path d="M196.082 90.8696C201.899 90.8696 206.614 86.145 206.614 80.317C206.614 74.489 201.899 69.7644 196.082 69.7644C190.265 69.7644 185.55 74.489 185.55 80.317C185.55 86.145 190.265 90.8696 196.082 90.8696Z" fill="#F8BDC5"/>
<path opacity="0.1" d="M198.738 77.1134C197.129 78.1394 197.106 80.4589 198.143 82.0655C199.18 83.6721 200.967 84.7335 202.686 85.7336C203.185 86.0239 203.736 86.324 204.296 86.2595C204.727 86.1753 205.126 85.9732 205.449 85.6755C206.652 84.7349 207.8 83.7256 208.887 82.6527C210.452 81.1106 211.956 79.2104 211.711 77.0586C211.434 74.6165 209.026 72.7776 208.054 70.4645C207.236 68.5288 207.48 66.3576 206.766 64.38C206.051 62.4024 203.546 60.5732 201.672 61.6088C200.98 61.9895 200.561 62.6702 199.981 63.1831C198.545 64.4542 196.23 64.58 194.266 63.9993C192.302 63.4186 191.719 61.0475 188.979 61.041C190.341 61.5217 191.262 62.9444 191.053 64.2413C189.955 64.8639 188.512 64.5091 187.189 64.4865C185.866 64.4639 184.291 65.2059 184.52 66.3996C184.719 67.3674 186.113 68.0868 185.907 69.0547C183.489 70.3313 180.852 71.1411 178.135 71.442C177.642 71.4968 181.094 74.3713 181.487 74.5616C182.926 75.252 184.655 75.7585 186.178 76.2876C190.315 77.7167 194.553 78.2265 198.738 77.1134Z" fill="black"/>
<path d="M198.738 76.8263C197.129 77.8522 197.106 80.1718 198.143 81.7784C199.18 83.385 200.967 84.4464 202.686 85.4465C203.185 85.7368 203.736 86.0369 204.296 85.9723C204.727 85.8882 205.126 85.6861 205.449 85.3884C206.652 84.4478 207.8 83.4385 208.887 82.3656C210.452 80.8235 211.956 78.9233 211.711 76.7715C211.434 74.3293 209.026 72.4905 208.054 70.1773C207.236 68.2417 207.48 66.0705 206.766 64.0929C206.051 62.1153 203.546 60.2861 201.672 61.3217C200.98 61.7024 200.561 62.3831 199.981 62.896C198.545 64.1671 196.23 64.2929 194.266 63.7122C192.302 63.1315 191.719 60.7604 188.979 60.7539C190.341 61.2346 191.262 62.6573 191.053 63.9542C189.955 64.5768 188.512 64.222 187.189 64.1994C185.866 64.1768 184.291 64.9188 184.52 66.1125C184.719 67.0803 186.113 67.7997 185.907 68.7675C183.489 70.0442 180.852 70.854 178.135 71.1549C177.642 71.2097 181.094 74.0842 181.487 74.2745C182.926 74.9649 184.655 75.4714 186.178 76.0005C190.315 77.4329 194.553 77.9329 198.738 76.8263Z" fill="#916168"/>
<path opacity="0.1" d="M211.28 180.488C211.737 181.544 211.896 182.705 211.74 183.846C210.887 190.692 198.362 195.253 194.946 196.105C193.146 196.557 191.185 195.502 190.364 194.234C190.892 195.724 193.165 197.192 195.232 196.676C198.648 195.821 211.174 191.256 212.027 184.417C212.213 183.061 211.951 181.68 211.28 180.488Z" fill="white"/>
<path d="M120.818 188.265C120.564 187.691 119.244 186.572 112.878 186.33C108.518 186.165 107.034 183.859 106.632 181.607C108.064 181.42 109.185 181.162 109.552 180.804C109.552 180.804 109.533 180.7 109.501 180.516L109.552 180.478C109.274 178.853 109.128 177.209 109.117 175.561C109.109 174.151 109.258 172.744 109.562 171.367C109.739 170.457 109.813 169.529 109.784 168.602C109.819 163.118 107.897 153.478 107.897 153.478L107.633 145.468C107.606 144.469 107.312 143.495 106.78 142.649C106.248 141.803 105.498 141.116 104.61 140.661C103.977 140.333 103.277 140.159 102.565 140.151C102.565 140.151 92.474 138.558 83.3908 137.69C82.7468 137.17 80.4768 135.77 75.2735 136.574L72.2791 127.792C72.2549 127.686 72.2377 127.578 72.2276 127.47C72.3338 126.353 73.0776 124.673 76.5454 124.566L77.2698 125.211C77.2698 125.211 77.3986 124.956 77.6144 124.566C81.9161 124.518 105.35 124.279 106.558 124.566C107.887 124.889 119.537 122.288 119.872 121.966C124.399 117.543 106.558 119.688 106.558 119.688C104.803 119.975 99.1326 119.633 93.324 119.159C96.1993 114.839 98.904 100.177 98.904 100.177C98.904 100.177 109.207 94.9731 106.226 92.047C103.244 89.121 94.2449 98.5508 94.2449 98.5508C94.2449 98.5508 90.5839 109.284 88.9192 112.536C88.2753 113.826 87.4413 114.091 86.6976 113.943C87.0356 113.672 87.2546 113.51 87.2546 113.51C87.2546 113.51 79.9327 107.655 79.2662 105.38C79.142 105.008 78.9779 104.65 78.7767 104.313C78.4258 102.251 77.8108 100.222 76.3103 98.8702C76.0583 98.5991 75.7801 98.3538 75.4796 98.1379C75.0739 97.8476 74.6135 97.5959 74.2303 97.2798C74.446 96.2861 74.6972 95.2538 74.958 94.2537C80.3931 93.6085 84.6175 89.0919 84.6175 83.6075C84.6167 82.7805 84.5184 81.9564 84.3245 81.1525C85.1368 81.2061 85.9491 81.0483 86.6826 80.6944C87.416 80.3405 88.0457 79.8026 88.5103 79.1329C89.6083 77.4941 89.5729 75.2616 88.652 73.5324C88.2714 72.8304 87.7724 72.1995 87.1773 71.6677C86.2285 70.7103 85.0714 69.9859 83.7965 69.5514C82.6921 69.1675 81.4718 68.9385 80.596 68.1868C80.2046 67.674 79.8485 67.135 79.5302 66.5737C79.1627 66.0226 78.7302 65.5179 78.2422 65.0704C76.6323 63.4089 74.3591 62.3863 72.044 61.9346C69.2234 61.3829 66.3095 61.5797 63.4406 61.7765C62.3684 61.8507 61.1094 62.0411 60.6265 62.9766C60.2626 63.6799 60.5009 64.5219 60.4526 65.3059C60.3013 67.7996 57.4549 69.1772 54.9789 69.7805C52.5028 70.3838 49.5502 70.9064 48.3556 73.0937C47.2706 75.0681 48.0337 77.4618 48.3814 79.6782C48.9606 83.5697 48.0981 87.5391 45.9569 90.8372C44.8685 92.5051 43.4647 93.9891 42.605 95.7796C41.6526 97.7756 41.4315 100.044 41.9803 102.187C42.1413 102.813 42.3732 103.451 42.2573 104.09C42.1255 104.617 41.8668 105.103 41.5038 105.506C40.0232 107.338 38.1806 108.843 36.0916 109.928C34.0027 111.012 31.7125 111.652 29.365 111.807C29.5621 112.462 29.9474 113.044 30.4726 113.481C31.1399 114.142 31.9181 114.681 32.7716 115.072C35.0201 116.202 37.3844 117.083 39.8231 117.701C41.4652 118.117 43.1813 118.414 44.8524 118.13C46.5235 117.846 48.1528 116.888 48.8386 115.372C49.2379 114.494 49.2958 113.501 49.65 112.607C50.3552 110.82 52.1035 109.662 53.2852 108.129C52.8873 112.078 52.6992 116.045 52.7218 120.014C52.7218 121.256 52.7218 122.376 52.7218 123.414C52.7218 127.895 52.3998 130.986 49.6275 136.583C49.2971 137.172 49.1523 137.847 49.2121 138.519C49.1518 138.882 49.1869 139.255 49.314 139.601C49.441 139.946 49.6555 140.253 49.9366 140.49C49.7434 141.607 49.6496 142.738 49.6565 143.871C49.6178 147.949 50.9927 153.424 58.2824 154.811L71.2616 154.166C71.2616 154.166 89.5664 150.588 94.5572 153.198C94.9691 153.286 95.3385 153.512 95.6039 153.84C95.8693 154.167 96.0147 154.576 96.0158 154.998C96.0003 155.269 95.9583 155.538 95.8902 155.801C95.7512 156.646 95.6983 157.504 95.7324 158.36C95.7099 163.844 96.8884 176.29 96.8884 176.29V181.568C96.0576 182.82 95.0337 184.672 95.1658 186.036C95.1658 186.065 95.1658 186.098 95.1658 186.127C95.1658 186.156 95.1658 186.207 95.1851 186.246C95.2044 186.285 95.1851 186.317 95.2076 186.352C95.2301 186.388 95.2269 186.42 95.2366 186.456C95.2463 186.491 95.2623 186.533 95.2784 186.569C95.2945 186.604 95.301 186.627 95.3139 186.656C95.3267 186.685 95.3557 186.74 95.3783 186.778L95.4169 186.846C95.4556 186.908 95.4987 186.967 95.5457 187.023C97.2104 188.959 105.527 192.705 108.193 192.553C111.023 192.392 120.506 192.876 120.841 188.649C120.883 188.523 120.875 188.386 120.818 188.265Z" fill="url(#paint1_linear)"/>
<path d="M97.1588 180.097C97.1588 180.097 93.295 184.936 94.9049 186.872C96.5149 188.808 104.564 192.508 107.14 192.356C109.877 192.195 119.054 192.679 119.376 188.485C119.376 188.485 120.02 186.549 111.648 186.227C103.277 185.904 105.852 177.194 105.852 177.194L97.1588 180.097Z" fill="#594C76"/>
<path opacity="0.1" d="M51.115 139.448C51.115 139.448 47.2512 152.675 58.8427 154.934L71.4001 154.288C71.4001 154.288 89.1092 150.74 93.939 153.32C93.939 153.32 95.8709 153.643 95.2269 156.224C94.583 158.805 96.1929 176.226 96.1929 176.226V182.033C96.1929 182.033 107.14 182.033 108.428 180.742C108.428 180.742 107.462 175.581 108.428 171.387C109.394 167.193 106.818 153.966 106.818 153.966L106.564 146.004C106.545 145.02 106.265 144.059 105.752 143.22C105.239 142.38 104.513 141.693 103.647 141.229C103.037 140.905 102.36 140.733 101.67 140.726C101.67 140.726 79.7749 137.177 72.0473 137.822C64.3196 138.468 51.115 139.448 51.115 139.448Z" fill="black"/>
<path d="M51.115 139.126C51.115 139.126 47.2512 152.353 58.8427 154.611L71.4001 153.966C71.4001 153.966 89.1092 150.417 93.939 152.998C93.939 152.998 95.8709 153.32 95.2269 155.901C94.583 158.482 96.1929 175.903 96.1929 175.903V181.71C96.1929 181.71 107.14 181.71 108.428 180.42C108.428 180.42 107.462 175.258 108.428 171.064C109.394 166.87 106.818 153.643 106.818 153.643L106.564 145.681C106.545 144.697 106.265 143.736 105.752 142.897C105.239 142.058 104.513 141.371 103.647 140.906C103.037 140.583 102.36 140.41 101.67 140.403C101.67 140.403 79.7749 136.854 72.0473 137.5C64.3196 138.145 51.115 139.126 51.115 139.126Z" fill="#8B9CD1"/>
<path d="M84.2794 112.994C84.2794 112.994 86.8553 116.22 88.4652 112.994C90.0752 109.768 93.617 99.1219 93.617 99.1219C93.617 99.1219 102.311 89.7662 105.208 92.6697C108.106 95.5732 98.1248 100.735 98.1248 100.735C98.1248 100.735 94.5829 120.414 91.3631 120.737C88.1432 121.059 83.3135 120.737 83.3135 120.737L81.7036 117.188L84.2794 112.994Z" fill="#F8BDC5"/>
<path opacity="0.05" d="M84.2794 112.994C84.2794 112.994 86.8553 116.22 88.4652 112.994C90.0752 109.768 93.617 99.1219 93.617 99.1219C93.617 99.1219 102.311 89.7662 105.208 92.6697C108.106 95.5732 98.1248 100.735 98.1248 100.735C98.1248 100.735 94.5829 120.414 91.3631 120.737C88.1432 121.059 83.3135 120.737 83.3135 120.737L81.7036 117.188L84.2794 112.994Z" fill="black"/>
<path d="M72.688 96.8638C72.688 96.8638 78.4837 103.639 79.1277 105.897C79.7717 108.155 86.8553 113.962 86.8553 113.962C86.8553 113.962 81.7036 117.833 82.6695 119.769C83.6355 121.705 75.9078 113.317 75.9078 113.317L66.8923 100.09L72.688 96.8638Z" fill="#EB6475"/>
<path opacity="0.1" d="M72.688 96.8638C72.688 96.8638 78.4837 103.639 79.1277 105.897C79.7717 108.155 86.8553 113.962 86.8553 113.962C86.8553 113.962 81.7036 117.833 82.6695 119.769C83.6355 121.705 75.9078 113.317 75.9078 113.317L66.8923 100.09L72.688 96.8638Z" fill="black"/>
<path d="M76.5518 89.121C76.5518 89.121 73.6539 98.4767 73.6539 102.025C73.6539 105.574 61.4185 101.058 61.7405 99.1219C62.0625 97.1862 68.8242 90.0888 69.1461 87.1853C69.4681 84.2818 76.5518 89.121 76.5518 89.121Z" fill="#F8BDC5"/>
<path opacity="0.1" d="M66.8923 95.5733C66.8923 95.5733 55.6228 92.6698 54.0129 109.123C52.403 125.576 55.3008 127.512 50.4711 137.513C45.6413 147.514 83.3135 138.803 83.3135 138.803C83.3135 138.803 81.3816 136.545 75.2639 137.513L72.366 128.802C72.366 128.802 71.4001 124.931 76.8738 124.931C82.3475 124.931 79.7717 113.639 79.7717 113.639C79.7717 113.639 76.8738 103.961 75.2639 102.993C73.6539 102.026 70.7561 96.2185 66.8923 95.5733Z" fill="black"/>
<path d="M66.8923 94.9281C66.8923 94.9281 55.6228 92.0246 54.0129 108.478C52.403 124.931 55.3008 126.866 50.4711 136.867C45.6413 146.868 83.3135 138.158 83.3135 138.158C83.3135 138.158 81.3816 135.9 75.2639 136.867L72.366 128.157C72.366 128.157 71.4001 124.286 76.8738 124.286C82.3475 124.286 79.7717 112.994 79.7717 112.994C79.7717 112.994 76.8738 103.316 75.2639 102.348C73.6539 101.38 70.7561 95.5733 66.8923 94.9281Z" fill="#EB6475"/>
<path d="M78.1617 118.156C78.1617 118.156 101.667 120.737 105.53 120.092C105.53 120.092 122.789 117.962 118.41 122.35C118.088 122.673 106.818 125.253 105.53 124.931C104.242 124.608 76.8738 124.931 76.8738 124.931L76.5518 121.705L78.1617 118.156Z" fill="#F8BDC5"/>
<path opacity="0.1" d="M60.1306 110.091L77.1958 125.576C77.1958 125.576 80.4157 119.124 81.3816 119.124C82.3476 119.124 69.7902 100.09 69.7902 100.09C69.7902 100.09 66.5703 96.2184 64.6384 98.154C62.7065 100.09 56.9108 98.7993 60.1306 110.091Z" fill="black"/>
<path d="M59.8087 109.445L76.8738 124.931C76.8738 124.931 80.0937 118.478 81.0596 118.478C82.0256 118.478 69.4682 99.4444 69.4682 99.4444C69.4682 99.4444 66.2483 95.5731 64.3164 97.5088C62.3845 99.4444 56.5888 98.154 59.8087 109.445Z" fill="#EB6475"/>
<path d="M73.654 94.928C79.5223 94.928 84.2795 90.1616 84.2795 84.2819C84.2795 78.4022 79.5223 73.6357 73.654 73.6357C67.7857 73.6357 63.0285 78.4022 63.0285 84.2819C63.0285 90.1616 67.7857 94.928 73.654 94.928Z" fill="#F8BDC5"/>
<path opacity="0.1" d="M82.9593 81.6075C84.7624 82.3205 86.9712 81.4656 88.0338 79.8428C89.0963 78.2201 89.0641 76.0102 88.169 74.2875C87.2739 72.5648 85.6189 71.313 83.7933 70.6614C82.6856 70.2678 81.4524 70.042 80.6024 69.229C80.0647 68.716 79.7459 68.0224 79.3434 67.3966C77.8398 65.048 75.1576 63.6607 72.4304 63.1155C69.7032 62.5703 66.8826 62.7639 64.1071 62.9574C63.0703 63.0316 61.8532 63.2187 61.3831 64.1479C61.0322 64.8447 61.2608 65.6803 61.2157 66.4578C61.0708 68.9322 58.3178 70.3033 55.9126 70.8969C53.5074 71.4905 50.719 72.0486 49.547 74.2294C48.4973 76.1877 49.2475 78.5621 49.5727 80.7623C50.1288 84.6055 49.2976 88.5214 47.2287 91.8052C46.1758 93.4602 44.8202 94.9313 43.9863 96.7089C43.0638 98.6953 42.8501 100.939 43.381 103.064C43.5387 103.687 43.7609 104.319 43.6514 104.952C43.5252 105.471 43.2756 105.953 42.9238 106.355C41.5126 108.164 39.7384 109.656 37.7157 110.736C35.6929 111.815 33.4668 112.457 31.181 112.62C31.548 114.004 32.8843 114.878 34.1561 115.524C36.3263 116.642 38.6135 117.516 40.9757 118.13C42.5631 118.543 44.2246 118.837 45.8409 118.556C47.4573 118.275 49.0318 117.324 49.7047 115.82C50.0911 114.949 50.1491 113.965 50.4904 113.075C51.2599 111.078 53.311 109.871 54.4122 108.036C55.465 106.281 55.874 106.074 56.1412 104.048C56.4085 102.022 56.9977 99.835 58.6591 98.6446C60.3979 97.3961 62.8449 97.6348 64.7768 98.5929C66.7087 99.5511 67.9033 99.1769 69.5165 100.583C72.3463 103.047 75.5135 105.091 78.9216 106.655C78.5996 103.842 78.0812 100.703 75.8016 99.0285C75.1576 98.5478 74.343 98.18 74.0017 97.4445C73.4575 96.2734 74.3881 94.8442 73.9663 93.6215C73.5445 92.3988 71.941 91.9472 71.2294 90.8374C70.6241 89.8954 70.7883 88.6146 71.355 87.6468C71.9217 86.6789 72.8168 85.9628 73.7087 85.2853C74.5008 84.6852 75.3036 84.0991 76.1171 83.5271C76.8523 83.0596 77.5124 82.4831 78.0748 81.8172C78.3968 81.3752 78.6093 80.4074 79.0569 80.0945C80.1838 79.3138 81.9161 81.1978 82.9593 81.6075Z" fill="black"/>
<path d="M82.6373 81.285C84.4405 81.998 86.6493 81.1431 87.7118 79.5203C88.7744 77.8976 88.7422 75.6877 87.8471 73.965C86.9519 72.2423 85.2969 70.9905 83.4713 70.3389C82.3637 69.9453 81.1305 69.7194 80.2804 68.9065C79.7427 68.3935 79.4239 67.6999 79.0215 67.074C77.5178 64.7254 74.8357 63.3382 72.1084 62.793C69.3812 62.2478 66.5606 62.4414 63.7851 62.6349C62.7484 62.7091 61.5313 62.8962 61.0612 63.8254C60.7102 64.5222 60.9388 65.3578 60.8937 66.1352C60.7488 68.6097 57.9959 69.9808 55.5906 70.5744C53.1854 71.168 50.397 71.7261 49.225 73.9069C48.1753 75.8652 48.9256 78.2396 49.2508 80.4398C49.8069 84.283 48.9757 88.1989 46.9067 91.4827C45.8538 93.1377 44.4983 94.6088 43.6643 96.3864C42.7418 98.3728 42.5281 100.616 43.059 102.742C43.2168 103.364 43.4389 103.997 43.3295 104.629C43.2033 105.149 42.9536 105.63 42.6018 106.032C41.1907 107.842 39.4164 109.334 37.3937 110.413C35.371 111.492 33.1448 112.134 30.859 112.298C31.2261 113.682 32.5623 114.556 33.8341 115.201C36.0044 116.319 38.2915 117.194 40.6538 117.808C42.2412 118.221 43.9026 118.514 45.519 118.234C47.1353 117.953 48.7098 117.001 49.3828 115.498C49.7692 114.627 49.8271 113.643 50.1684 112.752C50.938 110.755 52.989 109.549 54.0902 107.713C55.1431 105.958 55.552 105.752 55.8193 103.726C56.0865 101.7 56.6757 99.5125 58.3372 98.3221C60.0759 97.0736 62.523 97.3123 64.4549 98.2705C66.3868 99.2286 67.5813 98.8544 69.1945 100.261C72.0244 102.724 75.1915 104.769 78.5997 106.332C78.2777 103.519 77.7593 100.38 75.4796 98.706C74.8357 98.2253 74.021 97.8575 73.6797 97.122C73.1356 95.9509 74.0661 94.5217 73.6443 93.299C73.2225 92.0763 71.619 91.6247 70.9074 90.5149C70.3021 89.5729 70.4663 88.2921 71.033 87.3243C71.5997 86.3564 72.4948 85.6403 73.3867 84.9628C74.1788 84.3627 74.9816 83.7766 75.7952 83.2046C76.5303 82.7371 77.1904 82.1606 77.7528 81.4947C78.0748 81.0527 78.2873 80.0849 78.7349 79.772C79.8618 78.9913 81.5941 80.8753 82.6373 81.285Z" fill="#916168"/>
<g opacity="0.1">
<path opacity="0.1" d="M105.485 179.736C105.51 178.877 105.633 178.024 105.852 177.194L105.691 177.248C105.531 178.067 105.462 178.902 105.485 179.736Z" fill="white"/>
<path opacity="0.1" d="M107.14 191.711C104.564 191.862 96.5149 188.162 94.9049 186.227C94.6935 185.964 94.5636 185.646 94.5314 185.31C94.4842 185.582 94.493 185.861 94.5572 186.13C94.6214 186.398 94.7398 186.651 94.9049 186.872C96.5149 188.807 104.564 192.508 107.14 192.356C109.877 192.195 119.054 192.679 119.376 188.485C119.4 188.369 119.384 188.248 119.331 188.143C118.593 192.008 109.81 191.553 107.14 191.711Z" fill="white"/>
</g>
<path d="M120.181 95.4119H119.859V108.639H120.181V95.4119Z" fill="#FFD77C" stroke="#FFAB50" stroke-width="0.25" stroke-miterlimit="10"/>
<path d="M120.503 95.4119H120.181V108.639H120.503V95.4119Z" fill="#FFD77C" stroke="#FFAB50" stroke-width="0.25" stroke-miterlimit="10"/>
<path d="M120.825 95.4119H120.503V108.639H120.825V95.4119Z" fill="#FFD77C" stroke="#FFAB50" stroke-width="0.25" stroke-miterlimit="10"/>
<path d="M121.147 95.4119H120.825V108.639H121.147V95.4119Z" fill="#FFD77C" stroke="#FFAB50" stroke-width="0.25" stroke-miterlimit="10"/>
<path d="M121.469 95.4119H121.147V108.639H121.469V95.4119Z" fill="#FFD77C" stroke="#FFAB50" stroke-width="0.25" stroke-miterlimit="10"/>
<path d="M121.791 95.4119H121.469V108.639H121.791V95.4119Z" fill="#FFD77C" stroke="#FFAB50" stroke-width="0.25" stroke-miterlimit="10"/>
<path d="M122.113 95.4119H121.791V108.639H122.113V95.4119Z" fill="#FFD77C" stroke="#FFAB50" stroke-width="0.25" stroke-miterlimit="10"/>
</g>
<defs>
<linearGradient id="paint0_linear" x1="189.291" y1="197.679" x2="189.291" y2="59.9248" gradientUnits="userSpaceOnUse">
<stop stop-color="#808080" stop-opacity="0.25"/>
<stop offset="0.54" stop-color="#808080" stop-opacity="0.12"/>
<stop offset="1" stop-color="#808080" stop-opacity="0.1"/>
</linearGradient>
<linearGradient id="paint1_linear" x1="34930.3" y1="94130.8" x2="34930.3" y2="40951.8" gradientUnits="userSpaceOnUse">
<stop stop-color="#808080" stop-opacity="0.25"/>
<stop offset="0.54" stop-color="#808080" stop-opacity="0.12"/>
<stop offset="1" stop-color="#808080" stop-opacity="0.1"/>
</linearGradient>
<clipPath id="clip0">
<rect width="291" height="212" fill="white"/>
</clipPath>
</defs>
</svg>
